<svg xmlns="http://www.w3.org/2000/svg" width="512" height="512" fill="none" viewBox="0 0 512 512"><path fill="url(#paint0_linear_56_21)" d="M426.665 426.668C426.665 432.325 424.418 437.752 420.417 441.752C416.416 445.753 410.99 448.001 405.332 448.001H106.665C101.007 448.001 95.5812 445.753 91.5804 441.752C87.5796 437.752 85.332 432.325 85.332 426.668V234.668H21.332L241.641 34.3902C245.569 30.8164 250.688 28.8359 255.999 28.8359C261.309 28.8359 266.428 30.8164 270.356 34.3902L490.665 234.668H426.665V426.668ZM255.999 362.668L327.657 291.009C332.115 286.552 335.65 281.26 338.063 275.436C340.475 269.613 341.716 263.371 341.716 257.068C341.716 250.764 340.475 244.522 338.063 238.699C335.65 232.875 332.115 227.583 327.657 223.126C323.2 218.669 317.909 215.133 312.085 212.721C306.261 210.309 300.02 209.067 293.716 209.067C287.413 209.067 281.171 210.309 275.347 212.721C269.523 215.133 264.232 218.669 259.775 223.126L255.999 226.902L252.223 223.126C247.765 218.669 242.474 215.133 236.65 212.721C230.827 210.309 224.585 209.067 218.281 209.067C211.978 209.067 205.736 210.309 199.912 212.721C194.089 215.133 188.797 218.669 184.34 223.126C179.883 227.583 176.347 232.875 173.935 238.699C171.523 244.522 170.281 250.764 170.281 257.068C170.281 263.371 171.523 269.613 173.935 275.436C176.347 281.26 179.883 286.552 184.34 291.009L255.999 362.668Z"/><defs><linearGradient id="paint0_linear_56_21" x1="255.999" x2="255.999" y1="28.836" y2="448.001" gradientUnits="userSpaceOnUse"><stop stop-color="#FF00C8" stop-opacity=".729"/><stop offset=".781" stop-color="#FF925B"/></linearGradient></defs></svg>