<svg width="386" height="455" viewBox="0 0 386 455" fill="none" xmlns="http://www.w3.org/2000/svg">
<path d="M189.899 0.310547C174.999 0.610547 164.299 3.51055 157.199 8.71055L59.8991 60.8105L5.79911 134.401C-5.60089 152.001 2.49911 186.001 38.0991 164.201L77.0991 112.801C126.599 70.1106 227.599 89.7005 179.699 175.401C156.199 225.001 167.199 249.201 197.499 259.401L211.299 213.001C235.199 159.201 279.799 149.501 277.999 106.101L385.199 113.801L384.199 1.71055L189.899 0.310547ZM135.799 103.701C118.399 103.401 101.299 110.601 88.8991 121.001L49.7991 172.401C60.4991 180.901 71.2991 176.301 81.9991 166.001C94.5991 172.401 104.399 162.501 112.399 142.701C115.699 129.201 120.599 119.701 135.799 103.701ZM56.1991 199.701C55.7991 199.701 55.2991 199.701 54.8991 199.801C51.5991 200.501 47.6991 204.001 45.0991 212.001C42.3991 220.001 41.7991 231.401 44.1991 243.601C46.5991 255.701 51.5991 266.001 57.1991 272.401C62.5991 278.701 67.5991 280.501 70.8991 279.801C74.2991 279.201 78.0991 275.601 80.6991 267.701C83.3991 259.701 84.0991 248.201 81.6991 236.101C79.1991 223.901 74.1991 213.601 68.6991 207.301C63.8991 201.701 59.4991 199.701 56.1991 199.701ZM138.799 306.501C130.899 306.601 120.999 309.101 111.299 313.801C100.199 319.301 91.4991 326.901 86.7991 333.901C82.0991 340.801 81.6991 346.001 83.1991 349.101C84.6991 352.101 89.0991 355.001 97.4991 355.401C105.899 355.901 117.199 353.601 128.299 348.101C139.399 342.601 148.099 335.101 152.799 328.101C157.499 321.201 157.899 315.901 156.399 312.901C154.899 309.801 150.499 307.001 142.099 306.601C140.999 306.501 139.999 306.501 138.799 306.501ZM41.1991 402.101C36.4991 402.201 32.1991 402.901 28.3991 404.001C19.8991 406.501 14.9991 411.001 13.3991 416.301C11.6991 421.701 13.3991 428.101 19.0991 435.001C24.8991 441.801 34.5991 448.301 46.5991 451.901C58.4991 455.501 70.0991 455.401 78.6991 452.801C87.2991 450.301 92.1991 445.801 93.7991 440.501C95.3991 435.101 93.7991 428.701 87.9991 421.801C82.2991 415.001 72.5991 408.501 60.5991 404.901C53.7991 402.901 47.1991 402.001 41.1991 402.101Z" fill="url(#paint0_linear_56_10)"/>
<defs>
<linearGradient id="paint0_linear_56_10" x1="193.092" y1="0.310547" x2="193.092" y2="454.685" gradientUnits="userSpaceOnUse">
<stop stop-color="#FF00C8" stop-opacity="0.729412"/>
<stop offset="0.572917" stop-color="#FF925B"/>
</linearGradient>
</defs>
</svg>
