<svg xmlns="http://www.w3.org/2000/svg" width="512" height="512" fill="none" viewBox="0 0 512 512"><path fill="url(#paint0_linear_56_19)" d="M149.335 85.3327C149.335 61.6527 130.348 42.666 106.668 42.666C82.988 42.666 64.0013 61.6527 64.0013 85.3327C64.0013 109.013 82.988 127.999 106.668 127.999C130.348 127.999 149.335 109.013 149.335 85.3327ZM217.388 95.9993C208.641 95.9993 201.175 101.333 197.761 109.439C193.045 121.246 184.888 131.362 174.351 138.476C163.814 145.589 151.382 149.372 138.668 149.333H74.668C56.9613 149.333 42.668 163.626 42.668 181.333V234.666H170.668V186.453C185.686 181.716 199.456 173.684 210.972 162.943C222.488 152.203 231.458 139.025 237.228 124.373C242.775 110.719 232.108 95.9993 217.388 95.9993ZM405.335 362.666C429.015 362.666 448.001 343.679 448.001 319.999C448.001 296.319 429.015 277.333 405.335 277.333C381.655 277.333 362.668 296.319 362.668 319.999C362.668 343.679 381.655 362.666 405.335 362.666ZM437.335 383.999H373.335C346.455 383.999 323.628 367.573 314.241 344.106C312.708 340.147 310.013 336.744 306.51 334.345C303.007 331.946 298.86 330.664 294.615 330.666C279.895 330.666 269.228 345.386 274.561 359.039C280.364 373.672 289.345 386.832 300.857 397.568C312.368 408.304 326.121 416.349 341.121 421.119V469.333H469.121V415.999C469.335 398.293 455.041 383.999 437.335 383.999ZM368.001 236.586C368.001 236.586 368.001 236.373 368.215 236.586C357.066 239.462 346.891 245.273 338.75 253.414C330.608 261.556 324.797 271.73 321.921 282.879V282.666C319.575 291.839 311.041 298.666 301.015 298.666C289.281 298.666 279.681 289.066 279.681 277.333C279.681 276.266 280.108 274.346 280.108 274.346C284.646 254.919 294.553 237.157 308.698 223.088C322.843 209.019 340.657 199.207 360.108 194.773C360.961 194.773 361.815 194.559 362.668 194.559C374.401 194.559 384.001 204.159 384.001 215.893C384.001 225.706 377.175 234.239 368.001 236.586ZM384.001 129.279C384.001 140.159 376.108 148.906 365.655 150.399C297.601 158.719 244.055 212.479 235.735 280.533C234.851 285.791 232.034 290.528 227.836 293.816C223.639 297.104 218.364 298.705 213.048 298.304C207.731 297.903 202.756 295.53 199.099 291.65C195.442 287.77 193.367 282.664 193.281 277.333V275.413C203.948 187.519 274.135 117.973 362.241 107.946H362.455C374.401 107.946 384.001 117.546 384.001 129.279Z"/><defs><linearGradient id="paint0_linear_56_19" x1="255.896" x2="255.896" y1="42.666" y2="469.333" gradientUnits="userSpaceOnUse"><stop stop-color="#FF00C8" stop-opacity=".729"/><stop offset=".755" stop-color="#FF925B"/></linearGradient></defs></svg>