<svg width="512" height="512" viewBox="0 0 512 512" fill="none" xmlns="http://www.w3.org/2000/svg">
<path d="M255.999 424.534C290.488 413.867 319.288 392.804 342.399 361.345C365.51 329.885 379.021 294.77 382.932 256.001H255.999V88.0005L127.999 136.001V246.401C127.999 248.889 128.354 252.089 129.065 256.001H255.999V424.534ZM255.999 467.201C253.51 467.201 251.199 467.023 249.065 466.667C246.932 466.312 244.799 465.778 242.665 465.067C194.665 449.067 156.443 419.471 127.999 376.278C99.5543 333.085 85.332 286.593 85.332 236.801V136.001C85.332 127.112 87.9134 119.112 93.076 112.001C98.2387 104.889 104.902 99.7339 113.065 96.5339L241.065 48.5339C246.043 46.7561 251.021 45.8672 255.999 45.8672C260.976 45.8672 265.954 46.7561 270.932 48.5339L398.932 96.5339C407.11 99.7339 413.78 104.889 418.943 112.001C424.105 119.112 426.68 127.112 426.665 136.001V236.801C426.665 286.578 412.443 333.071 383.999 376.278C355.554 419.485 317.332 449.081 269.332 465.067C267.199 465.778 265.065 466.312 262.932 466.667C260.799 467.023 258.488 467.201 255.999 467.201Z" fill="url(#paint0_linear_56_17)"/>
<defs>
<linearGradient id="paint0_linear_56_17" x1="255.999" y1="45.8672" x2="255.999" y2="467.201" gradientUnits="userSpaceOnUse">
<stop stop-color="#FF00C8" stop-opacity="0.729412"/>
<stop offset="0.682292" stop-color="#FF925B"/>
</linearGradient>
</defs>
</svg>
